<svg xmlns="http://www.w3.org/2000/svg" width="165" height="52" viewBox="0 0 165 52">
    <g fill="none" fill-rule="evenodd">
        <path fill="#6E6F70" d="M20.228 12.202c0 1.172-.15 2.197-.447 3.076-.298 1.025-.744 1.904-1.34 2.636-.595.732-1.489 1.318-2.53 1.758-1.043.44-2.234.732-3.723.732H5.787v12.303H4V4h8.04c2.68 0 4.614.732 6.103 2.05 1.489 1.465 2.085 3.516 2.085 6.152zm-1.787 0c0-2.05-.595-3.662-1.638-4.833-1.042-1.172-2.68-1.758-4.764-1.758H5.935v13.035h6.104c1.191 0 2.233-.146 2.978-.439.893-.293 1.489-.732 1.935-1.465.447-.585.894-1.318 1.042-2.05.298-.732.447-1.611.447-2.49zM30.798 4c2.68 0 4.615.732 5.955 2.05 1.34 1.319 1.935 3.223 1.935 5.566 0 2.05-.446 3.662-1.489 4.98-.893 1.318-2.382 2.197-4.317 2.636.893 2.197 1.935 4.394 2.978 6.738 1.042 2.343 1.935 4.54 2.977 6.737h-2.233c-.893-2.197-1.935-4.394-2.829-6.59-.893-2.198-1.935-4.395-2.828-6.592H24.247v13.182h-1.786V4h8.337zm-6.7 1.758v12.156h6.104c2.085 0 3.573-.586 4.615-1.611 1.043-1.025 1.638-2.636 1.638-4.687 0-2.05-.595-3.515-1.638-4.394-1.042-1.025-2.68-1.464-4.615-1.464h-6.104zM57 24.798c0 1.172-.149 2.343-.596 3.222-.446 1.025-.893 1.904-1.637 2.637-.745.732-1.638 1.318-2.531 1.757-1.042.44-2.084.586-3.424.586-1.34 0-2.531-.146-3.573-.586-1.042-.44-1.936-1.025-2.68-1.757-.744-.733-1.191-1.612-1.638-2.637-.297-1.025-.595-2.197-.595-3.368V11.909c0-1.172.149-2.197.595-3.076.298-1.025.894-1.904 1.638-2.49.744-.732 1.638-1.318 2.68-1.757C46.28 4.146 47.472 4 48.812 4c1.19 0 2.382.146 3.424.586 1.042.44 1.935 1.025 2.53 1.611.745.732 1.192 1.611 1.638 2.49.447 1.025.596 2.05.596 3.222v12.889zm-1.935-12.889c0-.879-.15-1.611-.447-2.49a9.3 9.3 0 0 0-1.191-2.05 9.541 9.541 0 0 0-1.935-1.465c-.745-.293-1.638-.586-2.68-.586-1.042 0-1.936.147-2.829.586-.893.293-1.489.732-2.084 1.318-.596.586-.893 1.318-1.191 2.05-.298.733-.447 1.612-.447 2.49v12.743c0 1.904.596 3.515 1.638 4.687 1.19 1.172 2.68 1.904 4.764 1.904.893 0 1.786-.147 2.53-.586.745-.293 1.49-.879 1.936-1.318.596-.586 1.042-1.318 1.34-2.05.298-.733.447-1.612.447-2.49V11.909h.149z"/>
        <path fill="#00A592" d="M82.743 32.852V5.148h-4.608l-6.838 19.704-6.689-19.704H60V33h3.27V11.074l7.284 21.778h1.338l7.432-21.778v21.778h3.42zm17.54 0v-2.963h-11V20.11h10.703v-2.963H89.284V7.963h11V5h-14.42v27.852h14.42zm11.744 0V7.963h6.69V5h-16.5v2.963h6.54v24.889h3.27zm24.973 0l-5.797-11.704c2.824-.444 5.5-2.963 5.5-7.852 0-5.037-3.122-8.296-7.581-8.296h-8.473v27.852h3.27V21.74h4.013l5.352 11.11H137zm-8.176-14.074h-4.756V7.963h4.756c2.825 0 4.608 2.222 4.608 5.481-.148 3.112-1.783 5.334-4.608 5.334z"/>
        <path fill="#6E6F70" d="M6.667 47.88v-4.9h-1.63v4.9H4v-5.74h3.556v5.74h-.89zm6.666-5.74c-.296.7-.444 1.54-.74 2.24-.297.7-.445 1.54-.741 2.24-.148.28-.148.42-.296.7-.149.14-.149.28-.297.42-.148.14-.296.14-.444.14h-.889v-.84h.296c.148 0 .297 0 .297-.14.148 0 .148-.14.296-.28v-.14-.14L9.185 42h1.037l.593 1.82.444 1.4c0-.14.148-.42.148-.7.149-.28.149-.56.297-.84.148-.28.148-.56.296-.84.148-.28.148-.56.148-.7h1.185zm3.704.98v4.76H16v-4.9h-1.333v-.84h3.703v.84h-1.333v.14zM20 47.88v-5.74h3.407v.84h-2.37v1.54h2.074v.84h-2.074v1.54h2.37v.98H20zm8.889-1.68c0 .56-.148.98-.445 1.26-.296.28-.74.42-1.185.42h-1.926v-5.74h1.778c.593 0 1.037.14 1.333.42.297.28.445.7.445 1.12 0 .28 0 .42-.148.7-.148.14-.297.42-.593.42.148 0 .296.14.445.14l.296.28c0 .14.148.28.148.42-.148.28-.148.42-.148.56zm-1.037-2.38c0-.28 0-.42-.148-.56-.148-.14-.297-.14-.593-.14h-.74v1.54h.74c.296 0 .445-.14.593-.14 0-.28.148-.56.148-.7zm0 2.38c0-.28 0-.42-.148-.56-.148-.14-.297-.28-.593-.28h-.889v1.68h1.334c.148 0 .148-.14.296-.14 0-.14.148-.14.148-.28-.148-.28-.148-.42-.148-.42zm6.518 0c0 .28 0 .56-.148.7-.148.28-.148.42-.444.56-.148.14-.297.28-.593.42h-.592c-.297 0-.593 0-.89-.14-.296-.14-.444-.28-.592-.42-.148-.14-.296-.42-.296-.56 0-.28-.148-.42-.148-.7v-2.1c0-.14 0-.42.148-.56 0-.14.148-.42.296-.56.148-.14.296-.28.593-.42.296-.14.592-.14.889-.14.296 0 .592 0 .888.14.297.14.445.28.593.42.148.14.296.42.296.56.149.28.149.42.149.7v2.1h-.149zm-.889-2.24v-.28c0-.14-.148-.14-.148-.28s-.148-.14-.296-.28c-.148 0-.296-.14-.444-.14-.149 0-.297 0-.445.14-.148 0-.148.14-.296.28 0 .14-.148.14-.148.28V46.2c0 .28 0 .56.148.7.148.14.296.28.74.28.297 0 .445-.14.593-.28.148-.14.296-.28.296-.56v-2.38zM36.89 49H36v-1.96h.296c.148-.14.297-.28.297-.42 0-.14.148-.28.148-.56 0-.14 0-.42.148-.7v-.98l.148-2.38h3.26v4.76h.444v1.96h-.89v-.84h-3.258V49h.296zm2.667-1.96v-4.06h-1.482v3.08c0 .14 0 .42-.148.56 0 .14-.148.28-.148.42h1.778zm3.259.84v-5.74h1.037v3.78c.148-.28.296-.42.444-.7.148-.28.297-.42.297-.7.148-.42.444-.84.592-1.26.148-.42.445-.84.593-1.26h1.037v5.88h-1.037V44.1c-.148.14-.148.42-.297.56-.148.14-.148.42-.296.56l-1.333 2.66h-1.037zm8-4.76v4.76h-1.037v-4.9h-1.334v-.84h3.704v.84h-1.333v.14zm2.963 4.76v-5.74h3.407v.84h-2.37v1.54h2.074v.84h-2.074v1.54h2.37v.98h-3.407zm6.666-2.66c0 .42 0 .84-.148 1.12 0 .28-.148.56-.296.84-.148.28-.296.42-.444.56-.149.14-.445.28-.741.28l-.296-.7c.148-.14.296-.14.444-.28.148-.14.296-.28.296-.42.148-.14.148-.28.148-.56v-3.92h3.26v5.74H61.63v-4.76h-1.334v2.1h.148zm8.297.98c0 .56-.148.98-.445 1.26-.296.28-.74.42-1.333.42h-1.926v-5.74h1.037v2.24h.889c.296 0 .593 0 .889.14.296.14.444.14.592.28.149.14.297.28.297.56v.84zm-1.037 0c0-.28 0-.42-.148-.56-.149-.14-.297-.28-.741-.28h-.74v1.68h.888c.296 0 .593-.14.593-.28.148-.14.148-.28.148-.56zm7.407 1.68v-4.9h-1.63v4.9h-1.037v-5.74H76v5.74h-.889zm6.815-1.68c0 .28 0 .56-.148.7-.148.28-.148.42-.445.56-.148.14-.296.28-.592.42-.148.14-.445.14-.741.14s-.593 0-.889-.14c-.296-.14-.444-.28-.592-.42-.149-.14-.297-.42-.297-.56 0-.28-.148-.42-.148-.7v-2.1c0-.14 0-.42.148-.56 0-.14.148-.42.297-.56.148-.14.296-.28.592-.42.296-.14.593-.14.889-.14.296 0 .593 0 .889.14.296.14.444.28.592.42.149.14.297.42.297.56 0 .28.148.42.148.7v1.96zm-1.037-2.24v-.28c0-.14 0-.14-.148-.28 0-.14-.148-.14-.297-.28-.148 0-.296-.14-.444-.14-.148 0-.296 0-.444.14-.149 0-.149.14-.297.28 0 .14-.148.14-.148.28V46.2c0 .28 0 .56.148.7.148.14.297.28.741.28.296 0 .444-.14.593-.28.148-.14.296-.28.296-.56v-2.38zm7.704 3.92v-2.52h-1.63v2.52h-1.037v-5.74h1.037v2.38h1.63v-2.38h1.037v5.74h-1.037zm3.259 0v-5.74h3.407v.84h-2.518v1.54h2.074v.84H92.74v1.54h2.37v.98h-3.26zm5.63 1.12h-.89v-1.96h.297c.148-.14.296-.28.296-.42.148-.14.148-.28.148-.56 0-.14.148-.42.148-.7v-.98L97.63 42h3.259v4.76h.444v1.96h-.889v-.84h-3.259V49h.296zM100 47.04v-4.06h-1.481v3.08c0 .14 0 .42-.149.56 0 .14-.148.28-.148.42H100zm7.111-.84c0 .56-.148.98-.444 1.26-.297.28-.741.42-1.186.42h-1.925v-5.74h1.777c.593 0 1.037.14 1.334.42.296.28.444.7.444 1.12 0 .28 0 .42-.148.7-.148.14-.296.42-.593.42.149 0 .297.14.297.14l.296.28c0 .14.148.28.148.42-.148.28 0 .42 0 .56zm-1.185-2.38c0-.28 0-.42-.148-.56-.148-.14-.297-.14-.593-.14h-.74v1.54h.74c.296 0 .445-.14.593-.14.148-.28.148-.56.148-.7zm.148 2.38c0-.28 0-.42-.148-.56-.148-.14-.296-.28-.593-.28h-.889v1.68h1.334c.148 0 .148-.14.296-.14 0-.14.148-.14.148-.28-.148-.28-.148-.42-.148-.42zm2.963 1.68v-5.74h1.037v3.78c.148-.28.296-.42.445-.7.148-.28.296-.42.296-.7.148-.42.444-.84.592-1.26.149-.42.445-.84.593-1.26h.889v5.88H112V44.1c-.148.14-.148.42-.296.56-.148.14-.148.42-.297.56l-1.481 2.66h-.889zm8.593 0v-2.52h-.445-.148-.148c-.148 0-.296.14-.445.14-.148.14-.296.28-.296.56l-.444 1.68h-1.037l.444-1.82c.148-.28.148-.56.296-.7.149-.14.297-.28.593-.42-.148 0-.296-.14-.444-.42a1.04 1.04 0 0 1-.297-.7c-.148-.28-.148-.56-.296-.84-.148-.28-.148-.56-.296-.84h.889l.444 1.54c0 .14.148.28.148.42 0 .14.148.14.296.28.149 0 .149.14.297.14h.74V42h1.038v2.38h.74c.148 0 .148 0 .297-.14.148 0 .148-.14.296-.28 0-.14.148-.28.148-.42 0-.14 0-.14.148-.28 0-.14.148-.28.148-.42 0-.14.148-.28.148-.42 0-.14 0-.28.149-.42h.888c-.148.28-.148.56-.296.84-.148.28-.148.56-.296.84-.148.42-.296.84-.593.98l-.148.14c.296.14.445.14.593.42.148.14.296.42.296.7l.444 1.82h-1.037c0-.28-.148-.56-.148-.84 0-.28-.148-.56-.148-.84 0-.14-.148-.28-.148-.42 0-.14-.148-.14-.148-.28-.148 0-.148-.14-.296-.14h-.741v2.66h-1.185zm5.63 0v-5.74h1.036v3.78c.148-.28.297-.42.445-.7.148-.28.296-.42.296-.7.148-.42.444-.84.593-1.26.148-.42.444-.84.592-1.26h.89v5.88h-1.038V44.1c-.148.14-.148.42-.296.56-.148.14-.148.42-.297.56L124 47.88h-.74zm9.925 0v-3.36l-.444 1.12-.593 1.26h-.74l-.593-1.26-.445-.98v3.22h-1.037v-5.74h.89l.888 1.82.593 1.4.592-1.4.89-1.82h.888v5.74h-.889zm6.667-1.68c0 .28 0 .56-.148.7-.148.28-.148.42-.445.56-.148.14-.296.28-.592.42-.297.14-.445.14-.741.14s-.593 0-.889-.14c-.296-.14-.444-.28-.593-.42-.148-.14-.296-.42-.296-.56 0-.28-.148-.42-.148-.7v-2.1c0-.14 0-.42.148-.56 0-.14.148-.42.296-.56.149-.14.297-.28.593-.42.296-.14.593-.14.889-.14.296 0 .593 0 .889.14.296.14.444.28.592.42.149.14.297.42.297.56 0 .28.148.42.148.7v1.96zm-1.037-2.24v-.28c0-.14 0-.14-.148-.28 0-.14-.148-.14-.297-.28-.148 0-.296-.14-.444-.14-.148 0-.296 0-.445.14-.148 0-.148.14-.296.28 0 .14-.148.14-.148.28V46.2c0 .28 0 .56.148.7.148.14.296.28.74.28.297 0 .445-.14.594-.28.148-.14.296-.28.296-.56v-2.38zm6.666 2.66c-.148.42-.296.7-.592.98s-.74.28-1.185.28c-.297 0-.593 0-.89-.14a2.037 2.037 0 0 1-.592-.42c-.148-.14-.296-.42-.296-.56-.148-.28-.148-.42-.148-.7v-2.24c0-.28 0-.42.148-.7.148-.14.148-.42.296-.56.148-.14.297-.28.593-.42.296-.14.444-.14.889-.14.444 0 .889.14 1.185.42.296.28.444.56.592.84l-.888.28c0-.14 0-.14-.149-.28 0-.14-.148-.14-.148-.14s-.148-.14-.296-.14h-.296c-.148 0-.297 0-.445.14-.148 0-.148.14-.296.14 0 .14-.148.14-.148.28V46.34c0 .14.148.14.148.28.148.14.148.14.296.14h.445c.148 0 .444 0 .592-.14.148-.14.297-.28.297-.42l.888.42zm3.556-3.5v4.76H148v-4.9h-1.333v-.84h3.703v.84h-1.333v.14zm3.111 4.76v-5.74h1.037v3.78c.148-.28.296-.42.445-.7.148-.28.296-.42.296-.7.148-.42.444-.84.593-1.26.148-.42.444-.84.592-1.26H156v5.88h-1.037V44.1c-.148.14-.148.42-.296.56-.148.14-.148.42-.297.56l-1.481 2.66h-.74zM138.596 32.81v-1.768h1.634v1.769h-1.634zm8.914-13.852c-.892 0-1.486.147-1.932.59-.445.441-.89.884-1.188 1.62-.297.737-.446 1.327-.446 2.064-.148.736-.148 1.473-.148 2.063 0 .737 0 1.326.148 2.21 0 .737.149 1.474.446 2.063.297.59.594 1.18 1.04 1.621.446.443 1.188.59 2.08.59.743 0 1.485-.147 1.931-.442a3.489 3.489 0 0 0 1.189-1.326c.297-.59.445-1.18.594-2.064.148-.736.148-1.62.148-2.505 0-.884 0-1.62-.148-2.358 0-.737-.149-1.473-.446-2.063-.297-.59-.594-1.032-1.04-1.474-.743-.442-1.337-.59-2.228-.59zm-3.714 11.79v2.063h-1.337V11h1.337v9.284c.297-.59.743-1.179 1.485-1.62.595-.443 1.486-.738 2.526-.738 1.04 0 1.931.148 2.525.59a4.614 4.614 0 0 1 1.337 1.62c.298.738.446 1.475.595 2.359.148.884.148 1.768.148 2.8 0 1.031 0 1.916-.148 2.8-.149.884-.297 1.768-.595 2.505-.297.737-.89 1.326-1.485 1.768-.594.443-1.486.59-2.526.59a6.003 6.003 0 0 1-2.228-.442c-.594-.295-1.189-.884-1.634-1.769zm14.707 0c0-.295.149-.737.446-1.327.148-.59.446-1.474.743-2.358.297-.884.594-1.768.891-2.8a64.31 64.31 0 0 1 .891-2.8c.298-.884.446-1.62.743-2.358.149-.59.297-1.179.446-1.326H164c-.891 3.095-1.931 6.042-2.823 9.137-.891 2.947-1.93 6.042-2.822 9.137-.297 1.031-.743 1.62-1.189 2.21-.445.442-1.188.737-2.08.737H4v-1.179h150.79c.593 0 1.188-.147 1.485-.59.297-.442.594-1.031.891-1.768l.892-2.652c-.892-2.506-1.635-5.011-2.377-7.369-.743-2.505-1.635-4.863-2.377-7.368h1.485l2.08 6.484 1.634 6.19z"/>
    </g>
</svg>
