<svg width="135" height="50" viewBox="0 0 135 50" fill="none" xmlns="http://www.w3.org/2000/svg">
<path d="M7.5585 46.1005V38.1992H4.20996C4.0464 40.5677 3.61773 43.5076 2.8624 46.1005H7.5585ZM8.76284 36.6885C9.17122 36.6885 9.33478 36.8312 9.33478 37.1579V46.1005H10.029C10.4372 46.1005 10.6006 46.2438 10.6006 46.5499V50.0005H9.39591C8.96724 50.0005 8.82428 49.8577 8.82428 49.531V47.5913H1.82126V50.0005H0.616555C0.208068 50.0005 0.0449219 49.8577 0.0449219 49.531V46.1005H1.06552C2.00501 43.181 2.47457 39.9551 2.61748 36.6885H8.76284Z" fill="white"/>
<path d="M14.1737 41.3638H20.115C20.2171 41.1393 20.2784 40.8127 20.2784 40.5268C20.2784 38.9751 19.2778 37.9746 17.6037 37.9746C15.7864 37.9746 14.3777 39.2608 14.1737 41.3638ZM20.7481 45.6719C20.8911 45.8558 20.9929 46.203 20.9929 46.4683C20.9929 47.0198 19.7067 47.8363 17.7465 47.8363C14.6433 47.8363 12.3359 45.4883 12.3359 42.1399C12.3359 38.5871 14.827 36.4434 17.6854 36.4434C20.258 36.4434 22.014 38.1379 22.014 40.4452C22.014 41.0371 21.8913 41.6293 21.7076 42.0376C21.4219 42.691 21.0541 42.8748 20.2989 42.8748H14.1737C14.3983 45.1205 16.0317 46.3051 18.0323 46.3051C18.9921 46.3051 19.9111 46.1212 20.7481 45.6719Z" fill="white"/>
<path d="M29.1403 46.1005C30.7737 46.1005 31.5699 45.5292 31.5699 44.4061C31.5699 43.2833 30.6308 42.7525 28.8954 42.7525H26.4657V44.3449C26.4657 45.7739 26.7722 46.1005 27.6296 46.1005H29.1403ZM26.4657 38.1992V41.2617H28.916C30.4469 41.2617 31.0599 40.629 31.0599 39.7305C31.0599 38.8119 30.4469 38.1992 28.916 38.1992H26.4657ZM27.2825 47.5913C25.6285 47.5913 24.6895 46.8154 24.6895 44.6102V36.6885H29.12C31.5498 36.6885 32.836 38.0358 32.836 39.6489C32.836 40.6903 32.2847 41.4865 31.3865 41.8948C32.5093 42.2826 33.3465 43.0994 33.3465 44.4672C33.3465 46.3051 31.9172 47.5913 29.2832 47.5913H27.2825Z" fill="white"/>
<path d="M37.2466 41.3638H43.1883C43.2904 41.1393 43.3514 40.8127 43.3514 40.5268C43.3514 38.9751 42.3511 37.9746 40.6769 37.9746C38.8597 37.9746 37.4509 39.2608 37.2466 41.3638ZM43.821 45.6719C43.964 45.8558 44.0659 46.203 44.0659 46.4683C44.0659 47.0198 42.7798 47.8363 40.8199 47.8363C37.7163 47.8363 35.4092 45.4883 35.4092 42.1399C35.4092 38.5871 37.9 36.4434 40.7587 36.4434C43.3313 36.4434 45.0869 38.1379 45.0869 40.4452C45.0869 41.0371 44.9646 41.6293 44.7807 42.0376C44.495 42.691 44.1274 42.8748 43.3722 42.8748H37.2466C37.4712 45.1205 39.1047 46.3051 41.1056 46.3051C42.0654 46.3051 42.984 46.1212 43.821 45.6719Z" fill="white"/>
<path d="M45.9854 46.9377C45.9854 46.6724 46.0874 46.3458 46.2302 46.1212C46.5771 46.2844 46.9653 46.3664 47.3531 46.3664C48.1086 46.3664 48.5988 45.9373 48.8437 44.0999C49.1294 42.0582 49.3131 39.4243 49.3131 36.6885H56.8062C57.2146 36.6885 57.3574 36.8312 57.3574 37.1579V47.5913H56.1528C55.7447 47.5913 55.5813 47.4483 55.5813 47.1421V38.1992H51.0688C51.0283 39.8937 50.8855 42.3033 50.6198 44.3449C50.2931 46.897 49.395 47.8363 47.8228 47.8363C46.9038 47.8363 45.9854 47.3464 45.9854 46.9377Z" fill="white"/>
<path d="M69.0167 42.2623C69.0167 39.4447 67.2813 37.9746 65.4026 37.9746C63.6062 37.9746 61.993 39.2403 61.993 42.0171C61.993 44.8349 63.7288 46.3051 65.6071 46.3051C67.4037 46.3051 69.0167 45.0391 69.0167 42.2623ZM70.834 42.1399C70.834 45.7536 68.3837 47.8363 65.505 47.8363C62.6261 47.8363 60.1758 45.7536 60.1758 42.1399C60.1758 38.5259 62.6261 36.4434 65.505 36.4434C68.3837 36.4434 70.834 38.5259 70.834 42.1399Z" fill="white"/>
<path d="M82.6756 47.5913H81.4711C81.0422 47.5913 80.8994 47.4688 80.8994 47.1421V38.1992H75.4275V47.5913H74.2229C73.7942 47.5913 73.6514 47.4688 73.6514 47.1421V36.6885H82.1041C82.5124 36.6885 82.6756 36.8312 82.6756 37.1579V47.5913Z" fill="white"/>
<path d="M98.5814 47.5908H97.3157C96.9072 47.5908 96.7846 47.4683 96.7438 47.162L95.7434 39.138L93.0891 43.8545C92.9668 44.0587 92.7831 44.14 92.497 44.14H91.2926L88.4748 39.138L87.4133 47.5908H86.2086C85.78 47.5908 85.6367 47.4273 85.6776 47.1416L86.9842 37.0146C87.4133 36.7493 88.0051 36.5654 88.3318 36.5654C88.5975 36.5654 88.7607 36.6471 88.9035 36.9126L92.1092 42.5477L95.437 36.688H96.6624C97.0705 36.688 97.2136 36.8307 97.2542 37.1574L98.5814 47.5908Z" fill="white"/>
<path d="M102.646 41.3638H108.587C108.689 41.1393 108.75 40.8127 108.75 40.5268C108.75 38.9751 107.75 37.9746 106.075 37.9746C104.258 37.9746 102.85 39.2608 102.646 41.3638ZM109.22 45.6719C109.363 45.8558 109.465 46.203 109.465 46.4683C109.465 47.0198 108.178 47.8363 106.218 47.8363C103.115 47.8363 100.808 45.4883 100.808 42.1399C100.808 38.5871 103.299 36.4434 106.157 36.4434C108.73 36.4434 110.486 38.1379 110.486 40.4452C110.486 41.0371 110.363 41.6293 110.179 42.0376C109.894 42.691 109.526 42.8748 108.771 42.8748H102.646C102.87 45.1205 104.504 46.3051 106.504 46.3051C107.464 46.3051 108.383 46.1212 109.22 45.6719Z" fill="white"/>
<path d="M121.021 47.5908C120.592 47.5908 120.45 47.4683 120.45 47.1416V42.7111H114.977V47.5908H113.773C113.344 47.5908 113.201 47.4683 113.201 47.1416V36.7493C113.61 36.6267 114.038 36.5654 114.426 36.5654C114.814 36.5654 114.977 36.7084 114.977 36.994V41.2206H120.45V36.688H121.654C122.062 36.688 122.226 36.8307 122.226 37.1574V47.5908H121.021Z" fill="white"/>
<path d="M129.005 47.5913C128.576 47.5913 128.433 47.4688 128.433 47.1421V38.1992H125.065C124.779 38.1992 124.636 38.0358 124.636 37.6684C124.636 37.3622 124.677 36.9945 124.758 36.6885H133.538C133.844 36.6885 133.987 36.8517 133.987 37.2804V38.1992H130.21V47.5913H129.005Z" fill="white"/>
<path d="M90.7272 16.1758C90.7272 20.7797 87.5576 23.114 81.3068 23.114C75.0558 23.114 71.8867 20.7797 71.8867 16.1758V11.3237C71.8867 6.71974 75.056 4.38559 81.307 4.38559C87.5576 4.38559 90.7272 6.71989 90.7272 11.3237V16.1758ZM81.307 0C67.4091 0 65.627 5.77606 65.627 10.8081V16.6959C65.627 26.2758 74.0065 27.5043 81.3068 27.5043C95.2046 27.5045 96.9869 21.728 96.9869 16.6961V10.8082C96.9869 1.22851 88.6072 0 81.307 0Z" fill="#61BF1A"/>
<path d="M127.772 16.1758C127.772 20.7798 124.603 23.114 118.352 23.114C112.101 23.114 108.932 20.7797 108.932 16.1758V11.3237C108.932 6.71989 112.101 4.38559 118.352 4.38559C124.603 4.38559 127.772 6.71989 127.772 11.3237V16.1758ZM118.352 0C104.454 0 102.672 5.77606 102.672 10.8082V16.6961C102.672 26.276 111.052 27.5045 118.352 27.5045C132.25 27.5045 134.032 21.7283 134.032 16.6961V10.8082C134.032 1.22851 125.652 0 118.352 0Z" fill="#61BF1A"/>
<path d="M53.1412 9.34389L53.1318 26.8802H59.1284C59.1284 26.8802 59.1284 2.01318 59.1284 0.567383C56.7242 0.567383 53.1412 2.87855 53.1412 9.34389Z" fill="#61BF1A"/>
<path d="M16.89 17.828L27.7501 7.21096C28.3395 6.62462 29.1221 6.30165 29.9538 6.30165H30.1962L30.1965 17.8362L16.89 17.828ZM22.8527 4.0307L2.97586 23.8079L0 26.857H4.5521C6.76363 26.857 9.01942 25.8473 10.5875 24.287L11.8059 22.7475H21.1841C25.3721 22.7475 29.3988 20.8701 30.1965 18.286V26.857H35.9054V0.592773H31.1823C28.0391 0.592773 25.0809 1.81378 22.8527 4.0307Z" fill="#61BF1A"/>
<path d="M40.1729 16.7521H44.845C48.158 16.7521 48.8646 14.065 48.8646 10.752H44.845C41.5396 10.752 40.1729 13.4389 40.1729 16.7521Z" fill="#61BF1A"/>
</svg>
